<svg xmlns="http://www.w3.org/2000/svg" height="400" width="600" viewBox="0 0 600.01176 260.99905"><path d="M299.837 46.514l-20.4 62.458h41.247l-20.512-62.458h-.335zm-71.73 166.41c-1.233 0-2.24 1.138-2.24 2.393v26.556c0 1.367 1.007 2.394 2.24 2.394h143.797c1.233 0 2.242-1.026 2.242-2.394v-26.556c0-1.255-1.008-2.394-2.242-2.394H228.108zM299.947 9.36c15.804 0 20.738 11.513 24.884 22.91 1.68 4.9 42.59 118.65 43.828 122.07.335.914.112 2.506-1.347 3.08-1.455.568-22.64 9.002-23.87 9.344-1.123.456-2.47-.114-2.917-1.368-.446-1.14-9.19-25.986-10.2-28.72H269.8c-1.01 2.734-9.864 27.582-10.31 28.72-.45 1.14-1.683 1.937-2.916 1.368-1.234-.457-22.638-8.89-23.87-9.345-1.234-.46-1.794-1.94-1.348-3.08 1.572-4.218 41.806-116.258 43.823-122.07 3.92-11.28 9.08-22.91 24.762-22.91zm122.727" fill="#c11e22"/></svg>