<?xml version="1.0" encoding="utf-8"?><svg version="1.1" id="Слой_1" xmlns="http://www.w3.org/2000/svg" xmlns:xlink="http://www.w3.org/1999/xlink" x="0px" y="0px" viewBox="0 0 189.9 184.3" style="enable-background:new 0 0 189.9 184.3;" xml:space="preserve"><style type="text/css">.st0{fill-rule:evenodd;clip-rule:evenodd;fill:#FAB51D;}.st1{fill-rule:evenodd;clip-rule:evenodd;fill:#E40520;}.st2{fill-rule:evenodd;clip-rule:evenodd;fill:#FFFFFF;}.st3{fill:none;stroke:#FFFFFF;stroke-width:0.216;stroke-miterlimit:2.6131;}.st4{fill-rule:evenodd;clip-rule:evenodd;fill:#005098;}.st5{fill-rule:evenodd;clip-rule:evenodd;fill:#F7A600;}</style><g><polygon class="st0" points="131,112 133.9,111.9 136.7,111.7 139.5,111.3 142.3,110.8 145,110.2 147.7,109.5 150.3,108.6 152.8,107.6 155.3,106.4 157.7,105.2 160.1,103.9 162.4,102.4 164.6,100.8 166.7,99.2 168.7,97.4 170.7,95.5 172.5,93.6 174.3,91.6 175.9,89.4 177.5,87.3 179,85 180.3,82.6 181.6,80.2 182.7,77.7 183.7,75.2 184.6,72.6 185.3,69.9 186,67.2 186.4,64.4 186.8,61.6 187,58.8 187.1,55.9 187,53 186.8,50.2 186.4,47.4 186,44.6 185.3,41.9 184.6,39.3 183.7,36.7 182.7,34.2 181.6,31.7 180.3,29.3 179,27 177.5,24.7 175.9,22.5 174.3,20.4 172.5,18.3 170.7,16.4 168.7,14.5 166.7,12.8 164.6,11.1 162.4,9.6 160.1,8.1 157.7,6.8 155.3,5.5 152.8,4.4 150.3,3.4 147.7,2.5 145,1.8 142.3,1.1 139.5,0.6 136.7,0.3 133.9,0.1 131,0 128.1,0.1 125.3,0.3 122.5,0.6 119.7,1.1 117,1.8 114.4,2.5 111.8,3.4 109.2,4.4 106.7,5.5 104.3,6.8 102,8.1 99.7,9.6 97.5,11.1 95.4,12.8 93.4,14.5 91.5,16.4 89.6,18.3 87.9,20.4 86.2,22.5 84.6,24.7 83.2,27 81.9,29.3 80.6,31.7 79.5,34.2 78.5,36.7 77.6,39.3 76.9,41.9 76.2,44.6 75.8,47.4 75.4,50.2 75.2,53 75.1,55.9 75.2,58.8 75.4,61.6 75.8,64.4 76.2,67.2 76.9,69.9 77.6,72.6 78.5,75.2 79.5,77.7 80.6,80.2 81.9,82.6 83.2,85 84.6,87.3 86.2,89.4 87.9,91.6 89.6,93.6 91.5,95.5 93.4,97.4 95.4,99.2 97.5,100.8 99.7,102.4 102,103.9 104.3,105.2 106.7,106.4 109.2,107.6 111.8,108.6 114.4,109.5 117,110.2 119.7,110.8 122.5,111.3 125.3,111.7 128.1,111.9 131,112 131,112 "/><polygon class="st1" points="56.1,112 59,111.9 61.8,111.7 64.6,111.3 67.4,110.8 70.1,110.2 72.7,109.5 75.3,108.6 77.9,107.6 80.3,106.4 82.7,105.2 85.1,103.9 87.3,102.4 89.5,100.8 91.7,99.2 93.7,97.4 95.6,95.5 97.5,93.6 99.2,91.6 100.9,89.4 102.4,87.3 103.9,85 105.2,82.6 106.5,80.2 107.6,77.7 108.6,75.2 109.5,72.6 110.2,69.9 110.8,67.2 111.3,64.4 111.7,61.6 111.9,58.8 112,55.9 111.9,53 111.7,50.2 111.3,47.4 110.8,44.6 110.2,41.9 109.5,39.3 108.6,36.7 107.6,34.2 106.5,31.7 105.2,29.3 103.9,27 102.4,24.7 100.9,22.5 99.2,20.4 97.5,18.3 95.6,16.4 93.7,14.5 91.7,12.8 89.5,11.1 87.3,9.6 85.1,8.1 82.7,6.8 80.3,5.5 77.9,4.4 75.3,3.4 72.7,2.5 70.1,1.8 67.4,1.1 64.6,0.6 61.8,0.3 59,0.1 56.1,0 53.2,0.1 50.4,0.3 47.6,0.6 44.8,1.1 42.1,1.8 39.4,2.5 36.8,3.4 34.3,4.4 31.8,5.5 29.3,6.8 27,8.1 24.7,9.6 22.5,11.1 20.4,12.8 18.4,14.5 16.4,16.4 14.6,18.3 12.8,20.4 11.1,22.5 9.6,24.7 8.1,27 6.8,29.3 5.5,31.7 4.4,34.2 3.4,36.7 2.5,39.3 1.8,41.9 1.1,44.6 0.6,47.4 0.3,50.2 0.1,53 0,55.9 0.1,58.8 0.3,61.6 0.6,64.4 1.1,67.2 1.8,69.9 2.5,72.6 3.4,75.2 4.4,77.7 5.5,80.2 6.8,82.6 8.1,85 9.6,87.3 11.1,89.4 12.8,91.6 14.6,93.6 16.4,95.5 18.4,97.4 20.4,99.2 22.5,100.8 24.7,102.4 27,103.9 29.3,105.2 31.8,106.4 34.3,107.6 36.8,108.6 39.4,109.5 42.1,110.2 44.8,110.8 47.6,111.3 50.4,111.7 53.2,111.9 56.1,112 56.1,112 "/><polygon class="st0" points="87,21.5 116.7,21.5 116.7,18.4 89.6,18.4 87,21.5 87,21.5 "/><polygon class="st0" points="82.5,28.2 116.7,28.2 116.7,25.2 84.3,25.2 82.5,28.2 82.5,28.2 "/><polygon class="st0" points="79.2,35 116.7,35 116.7,31.9 80.5,31.9 79.2,35 79.2,35 "/><polygon class="st0" points="76.9,41.7 116.7,41.7 116.7,38.7 77.9,38.7 76.9,41.7 76.9,41.7 "/><polygon class="st0" points="78.2,74.4 116.8,74.4 116.8,71.4 77.3,71.4 78.2,74.4 78.2,74.4 "/><polygon class="st0" points="81.1,81.2 116.8,81.2 116.8,78.1 79.7,78.1 81.1,81.2 81.1,81.2 "/><polygon class="st0" points="85.1,87.9 116.8,87.9 116.8,84.9 83.2,84.9 85.1,87.9 85.1,87.9 "/><polygon class="st0" points="90.6,94.7 116.8,94.7 116.8,91.6 88,91.6 90.6,94.7 90.6,94.7 "/><polygon class="st0" points="75.6,48.5 116.7,48.5 116.7,45.4 76.2,45.4 75.6,48.5 75.6,48.5 "/><polygon class="st0" points="100.7,67.7 116.4,67.7 116.4,64.6 101.2,64.6 100.7,67.7 100.7,67.7 "/><polygon class="st0" points="101.9,60.9 116.4,60.9 116.4,57.9 102.5,57.9 101.9,60.9 101.9,60.9 "/><polygon class="st0" points="74.5,57.9 78.6,57.9 78.6,60.9 74.7,60.9 74.5,57.9 74.5,57.9 "/><polygon class="st2" points="66.9,54.2 66.7,54.2 66.4,54.1 66.2,54.1 65.9,54.1 65.7,54 65.4,54 65.2,53.9 64.9,53.9 64.7,53.9 64.4,53.8 64,53.8 63.7,53.8 63.3,53.8 62.8,53.8 62.3,53.9 61.8,53.9 61.4,54 61.1,54 60.7,54.1 60.5,54.2 60.2,54.4 59.9,54.5 59.8,54.7 59.6,54.9 59.5,55.1 59.4,55.3 59.3,55.5 59.3,55.8 59.4,56 59.5,56.2 59.6,56.5 59.8,56.7 60.2,57.1 60.6,57.4 61.2,57.6 61.7,57.8 62.3,58 63,58.2 63.6,58.5 64.2,58.7 64.8,59 65.3,59.4 65.8,59.9 66.2,60.5 66.5,61.2 66.6,62 66.7,63.1 66.6,64.3 66.5,65.1 66.3,65.9 66,66.6 65.6,67.3 65.2,67.8 64.7,68.3 64.2,68.7 63.6,69 63,69.3 62.3,69.6 61.7,69.8 61,69.9 60.4,70 59.8,70.1 59.2,70.1 58.6,70.1 57.8,70.1 57,70.1 56.3,70.1 55.7,70.1 55.1,70.1 54.6,70 54.2,70 53.7,70 53.4,69.9 53,69.8 52.6,69.8 52.3,69.7 52,69.6 51.7,69.5 51.4,69.4 51.1,69.3 51.9,65.1 52.1,65.1 52.3,65.2 52.6,65.3 52.9,65.3 53.2,65.4 53.6,65.5 54,65.6 54.5,65.7 54.9,65.7 55.4,65.8 55.9,65.9 56.5,65.9 57,66 57.6,66 58.1,66 58.7,66 59.2,65.8 59.6,65.7 60,65.5 60.2,65.2 60.4,64.9 60.6,64.6 60.7,64.3 60.8,64.1 60.8,63.5 60.6,63 60.3,62.7 59.8,62.3 59.3,62.1 58.6,61.8 57.9,61.5 57.1,61.2 56.4,60.9 55.7,60.5 55,60 54.4,59.4 53.9,58.7 53.6,57.8 53.4,56.8 53.4,55.6 53.5,54.9 53.7,54.2 53.8,53.5 54.1,52.9 54.4,52.4 54.7,51.9 55.1,51.4 55.6,51 56.1,50.6 56.7,50.3 57.4,50 58.2,49.8 59,49.7 59.9,49.5 61,49.4 62.1,49.4 62.8,49.4 63.4,49.4 64,49.5 64.5,49.5 65,49.5 65.4,49.6 65.8,49.6 66.2,49.6 66.5,49.7 66.7,49.7 67,49.8 67.2,49.8 67.4,49.8 67.6,49.9 67.7,49.9 67.9,49.9 66.9,54.2 66.9,54.2 "/><polyline class="st3" points="66.9,54.2 66.9,54.2 66.7,54.2 66.4,54.1 66.2,54.1 65.9,54.1 65.7,54 65.4,54 65.2,53.9 64.9,53.9 64.7,53.9 64.4,53.8 64,53.8 63.7,53.8 63.3,53.8 62.8,53.8 62.3,53.9 61.8,53.9 61.8,53.9 61.4,54 61.1,54 60.7,54.1 60.5,54.2 60.2,54.4 59.9,54.5 59.8,54.7 59.6,54.9 59.5,55.1 59.4,55.3 59.3,55.5 59.3,55.8 59.4,56 59.5,56.2 59.6,56.5 59.8,56.7 59.8,56.7 60.2,57.1 60.6,57.4 61.2,57.6 61.7,57.8 62.3,58 63,58.2 63.6,58.5 64.2,58.7 64.8,59 65.3,59.4 65.8,59.9 66.2,60.5 66.5,61.2 66.6,62 66.7,63.1 66.6,64.3 66.6,64.3 66.5,65.1 66.3,65.9 66,66.6 65.6,67.3 65.2,67.8 64.7,68.3 64.2,68.7 63.6,69 63,69.3 62.3,69.6 61.7,69.8 61,69.9 60.4,70 59.8,70.1 59.2,70.1 58.6,70.1 58.6,70.1 57.8,70.1 57,70.1 56.3,70.1 55.7,70.1 55.1,70.1 54.6,70 54.2,70 53.7,70 53.4,69.9 53,69.8 52.6,69.8 52.3,69.7 52,69.6 51.7,69.5 51.4,69.4 51.1,69.3 51.9,65.1 51.9,65.1 52.1,65.1 52.3,65.2 52.6,65.3 52.9,65.3 53.2,65.4 53.6,65.5 54,65.6 54.5,65.7 54.9,65.7 55.4,65.8 55.9,65.9 56.5,65.9 57,66 57.6,66 58.1,66 58.7,66 58.7,66 59.2,65.8 59.6,65.7 60,65.5 60.2,65.2 60.4,64.9 60.6,64.6 60.7,64.3 60.8,64.1 60.8,64.1 60.8,63.5 60.6,63 60.3,62.7 59.8,62.3 59.3,62.1 58.6,61.8 57.9,61.5 57.1,61.2 56.4,60.9 55.7,60.5 55,60 54.4,59.4 53.9,58.7 53.6,57.8 53.4,56.8 53.4,55.6 53.4,55.6 53.5,54.9 53.7,54.2 53.8,53.5 54.1,52.9 54.4,52.4 54.7,51.9 55.1,51.4 55.6,51 56.1,50.6 56.7,50.3 57.4,50 58.2,49.8 59,49.7 59.9,49.5 61,49.4 62.1,49.4 62.1,49.4 62.8,49.4 63.4,49.4 64,49.5 64.5,49.5 65,49.5 65.4,49.6 65.8,49.6 66.2,49.6 66.5,49.7 66.7,49.7 67,49.8 67.2,49.8 67.4,49.8 67.6,49.9 67.7,49.9 67.9,49.9 66.9,54.2 "/><polygon class="st2" points="71.4,45.3 76.6,45.3 75.9,49.8 79,49.8 78.3,54.1 75,54 73.2,64.5 73.2,64.9 73.3,65.2 73.5,65.5 73.7,65.7 74.1,65.8 74.4,65.9 74.8,66 75.3,66 75.7,66 76.1,66 76.4,65.9 76.7,65.9 77,65.8 77.1,65.7 77.3,65.7 77.3,65.7 76.6,69.2 76.5,69.3 76.4,69.4 76.2,69.4 76.1,69.5 76,69.6 75.8,69.6 75.7,69.7 75.5,69.7 75.3,69.8 75.1,69.8 74.9,69.9 74.7,69.9 74.4,69.9 74.1,70 73.8,70 73.5,70 72.1,70 71.3,70 70.7,69.9 70,69.8 69.5,69.7 69.1,69.5 68.7,69.3 68.4,69.1 68.2,68.8 68,68.6 67.9,68.3 67.8,67.9 67.7,67.6 67.7,67.2 67.7,66.8 67.7,66.3 67.8,65.9 71.4,45.3 71.4,45.3 "/><polyline class="st3" points="71.4,45.3 76.6,45.3 75.9,49.8 79,49.8 78.3,54.1 75,54 73.2,64.5 73.2,64.5 73.2,64.9 73.3,65.2 73.5,65.5 73.7,65.7 74.1,65.8 74.4,65.9 74.8,66 75.3,66 75.3,66 75.7,66 76.1,66 76.4,65.9 76.7,65.9 77,65.8 77.1,65.7 77.3,65.7 77.3,65.7 76.6,69.2 76.6,69.2 76.5,69.3 76.4,69.4 76.2,69.4 76.1,69.5 76,69.6 75.8,69.6 75.7,69.7 75.5,69.7 75.3,69.8 75.1,69.8 74.9,69.9 74.7,69.9 74.4,69.9 74.1,70 73.8,70 73.5,70 72.1,70 72.1,70 71.3,70 70.7,69.9 70,69.8 69.5,69.7 69.1,69.5 68.7,69.3 68.4,69.1 68.2,68.8 68,68.6 67.9,68.3 67.8,67.9 67.7,67.6 67.7,67.2 67.7,66.8 67.7,66.3 67.8,65.9 71.4,45.3 "/><polygon class="st2" points="83.2,61.2 83.1,61.5 83.1,61.9 83.2,62.2 83.2,62.6 83.4,62.9 83.5,63.3 83.7,63.6 83.9,64 84.2,64.3 84.5,64.6 84.8,64.9 85.1,65.1 85.5,65.3 85.9,65.5 86.2,65.6 86.6,65.7 87.1,65.7 87.6,65.8 88.1,65.9 88.6,65.9 89,65.9 89.6,65.9 90,65.9 90.6,65.9 91.1,65.8 91.6,65.7 92.1,65.6 92.6,65.4 93.1,65.2 93.7,65 94.2,64.7 94.8,64.3 94,69 93.7,69.1 93.4,69.3 93.1,69.4 92.8,69.5 92.5,69.6 92.2,69.7 91.9,69.8 91.6,69.8 91.3,69.9 90.9,69.9 90.5,70 90.1,70 89.6,70 89.1,70 88.5,70 87.9,70 86.9,70 86,69.9 85,69.8 84.1,69.6 83.2,69.3 82.3,68.9 81.4,68.5 80.6,67.9 79.9,67.3 79.3,66.5 78.7,65.6 78.3,64.6 77.9,63.5 77.7,62.2 77.7,60.9 77.8,59.3 77.8,58.7 78,58 78.1,57.3 78.3,56.5 78.6,55.7 78.9,54.8 79.4,54 79.9,53.2 80.5,52.5 81.2,51.7 82.1,51.1 83,50.5 84.1,50.1 85.3,49.7 86.7,49.5 88.2,49.4 89,49.4 89.7,49.5 90.5,49.7 91.3,49.8 92.1,50.1 92.8,50.5 93.5,50.9 94.1,51.4 94.7,52.1 95.1,52.8 95.5,53.7 95.8,54.7 95.9,55.8 95.9,57.1 95.8,58.6 95.5,60.2 95.4,61.3 81.7,61.3 82.5,57.6 90.8,57.6 90.8,57.1 90.8,56.7 90.8,56.2 90.7,55.9 90.6,55.5 90.4,55.2 90.3,54.9 90.1,54.6 89.8,54.4 89.6,54.2 89.3,54.1 89,53.9 88.7,53.8 88.4,53.7 88.1,53.7 87.8,53.6 87.4,53.6 87.1,53.7 86.7,53.8 86.4,53.9 86.1,54 85.8,54.2 85.5,54.4 85.3,54.6 85,54.9 84.8,55.2 84.6,55.5 84.4,55.8 84.3,56.1 84.1,56.5 84,56.9 83.9,57.3 83.2,61.2 83.2,61.2 "/><polyline class="st3" points="83.2,61.2 83.2,61.2 83.1,61.5 83.1,61.9 83.2,62.2 83.2,62.6 83.4,62.9 83.5,63.3 83.7,63.6 83.9,64 84.2,64.3 84.5,64.6 84.8,64.9 85.1,65.1 85.5,65.3 85.9,65.5 86.2,65.6 86.6,65.7 86.6,65.7 87.1,65.7 87.6,65.8 88.1,65.9 88.6,65.9 89,65.9 89.6,65.9 90,65.9 90.6,65.9 91.1,65.8 91.6,65.7 92.1,65.6 92.6,65.4 93.1,65.2 93.7,65 94.2,64.7 94.8,64.3 94,69 94,69 93.7,69.1 93.4,69.3 93.1,69.4 92.8,69.5 92.5,69.6 92.2,69.7 91.9,69.8 91.6,69.8 91.3,69.9 90.9,69.9 90.5,70 90.1,70 89.6,70 89.1,70 88.5,70 87.9,70 87.9,70 86.9,70 86,69.9 85,69.8 84.1,69.6 83.2,69.3 82.3,68.9 81.4,68.5 80.6,67.9 79.9,67.3 79.3,66.5 78.7,65.6 78.3,64.6 77.9,63.5 77.7,62.2 77.7,60.9 77.8,59.3 77.8,59.3 77.8,58.7 78,58 78.1,57.3 78.3,56.5 78.6,55.7 78.9,54.8 79.4,54 79.9,53.2 80.5,52.5 81.2,51.7 82.1,51.1 83,50.5 84.1,50.1 85.3,49.7 86.7,49.5 88.2,49.4 88.2,49.4 89,49.4 89.7,49.5 90.5,49.7 91.3,49.8 92.1,50.1 92.8,50.5 93.5,50.9 94.1,51.4 94.7,52.1 95.1,52.8 95.5,53.7 95.8,54.7 95.9,55.8 95.9,57.1 95.8,58.6 95.5,60.2 95.4,61.3 81.7,61.3 82.5,57.6 90.8,57.6 90.8,57.6 90.8,57.1 90.8,56.7 90.8,56.2 90.7,55.9 90.6,55.5 90.4,55.2 90.3,54.9 90.1,54.6 89.8,54.4 89.6,54.2 89.3,54.1 89,53.9 88.7,53.8 88.4,53.7 88.1,53.7 87.8,53.6 87.8,53.6 87.4,53.6 87.1,53.7 86.7,53.8 86.4,53.9 86.1,54 85.8,54.2 85.5,54.4 85.3,54.6 85,54.9 84.8,55.2 84.6,55.5 84.4,55.8 84.3,56.1 84.1,56.5 84,56.9 83.9,57.3 83.2,61.2 "/><polygon class="st2" points="128.2,51 128,50.8 127.7,50.7 127.5,50.6 127.2,50.4 126.9,50.3 126.6,50.2 126.3,50.1 125.9,50 125.6,49.9 125.2,49.8 124.8,49.7 124.4,49.7 124,49.7 123.6,49.6 123.1,49.6 122.6,49.6 122.2,49.6 121.7,49.7 121.2,49.7 120.6,49.8 120.1,50 119.6,50.2 119,50.4 118.5,50.8 118,51.2 117.5,51.7 117,52.3 116.6,53 116.2,53.8 115.8,54.8 115.4,55.8 115.1,57 115,57.7 114.9,58.4 114.9,59 114.9,59.7 115,60.3 115.1,60.9 115.3,61.5 115.5,62 115.8,62.6 116.1,63 116.5,63.5 116.9,63.9 117.5,64.2 118,64.5 118.7,64.7 119.4,64.9 119.6,65 119.9,65 120.3,65.1 120.6,65.1 121.1,65.1 121.5,65.1 122,65.1 122.4,65.1 122.9,65 123.4,64.9 123.9,64.8 124.4,64.7 124.8,64.5 125.3,64.2 125.7,63.9 126,63.6 125.2,68.6 125.1,68.7 125,68.8 124.8,69 124.6,69.1 124.4,69.2 124.2,69.4 123.9,69.5 123.5,69.6 123.1,69.7 122.6,69.8 122,69.9 121.4,70 120.6,70 119.8,70 118.8,70 117.8,70 116.9,69.9 116,69.7 115.2,69.4 114.3,69 113.5,68.6 112.7,68 111.9,67.3 111.2,66.6 110.6,65.7 110.1,64.8 109.6,63.7 109.3,62.6 109,61.3 109,60 109,58.5 109.2,56.9 109.4,56.1 109.5,55.4 109.7,54.7 109.9,54 110.1,53.3 110.4,52.6 110.6,52 110.9,51.4 111.2,50.8 111.4,50.3 111.8,49.8 112.1,49.3 112.4,48.8 112.8,48.3 113.2,47.9 113.6,47.5 114,47.2 114.5,46.8 114.9,46.5 115.4,46.2 115.9,45.9 116.4,45.6 116.9,45.4 117.5,45.2 118.1,45 118.7,44.9 119.3,44.7 119.9,44.6 120.6,44.5 121.2,44.5 121.9,44.4 122.6,44.4 123.2,44.4 123.8,44.5 124.4,44.5 125,44.6 125.5,44.7 126,44.8 126.5,44.9 126.9,45 127.4,45.1 127.7,45.2 128.1,45.3 128.4,45.4 128.7,45.5 128.9,45.6 129.1,45.7 129.2,45.7 128.2,51 128.2,51 "/><polyline class="st3" points="128.2,51 128.2,51 128,50.8 127.7,50.7 127.5,50.6 127.2,50.4 126.9,50.3 126.6,50.2 126.3,50.1 125.9,50 125.6,49.9 125.2,49.8 124.8,49.7 124.4,49.7 124,49.7 123.6,49.6 123.1,49.6 122.6,49.6 122.6,49.6 122.2,49.6 121.7,49.7 121.2,49.7 120.6,49.8 120.1,50 119.6,50.2 119,50.4 118.5,50.8 118,51.2 117.5,51.7 117,52.3 116.6,53 116.2,53.8 115.8,54.8 115.4,55.8 115.1,57 115.1,57 115,57.7 114.9,58.4 114.9,59 114.9,59.7 115,60.3 115.1,60.9 115.3,61.5 115.5,62 115.8,62.6 116.1,63 116.5,63.5 116.9,63.9 117.5,64.2 118,64.5 118.7,64.7 119.4,64.9 119.4,64.9 119.6,65 119.9,65 120.3,65.1 120.6,65.1 121.1,65.1 121.5,65.1 122,65.1 122.4,65.1 122.9,65 123.4,64.9 123.9,64.8 124.4,64.7 124.8,64.5 125.3,64.2 125.7,63.9 126,63.6 125.2,68.6 125.2,68.6 125.1,68.7 125,68.8 124.8,69 124.6,69.1 124.4,69.2 124.2,69.4 123.9,69.5 123.5,69.6 123.1,69.7 122.6,69.8 122,69.9 121.4,70 120.6,70 119.8,70 118.8,70 117.8,70 117.8,70 116.9,69.9 116,69.7 115.2,69.4 114.3,69 113.5,68.6 112.7,68 111.9,67.3 111.2,66.6 110.6,65.7 110.1,64.8 109.6,63.7 109.3,62.6 109,61.3 109,60 109,58.5 109.2,56.9 109.2,56.9 109.4,56.1 109.5,55.4 109.7,54.7 109.9,54 110.1,53.3 110.4,52.6 110.6,52 110.9,51.4 111.2,50.8 111.4,50.3 111.8,49.8 112.1,49.3 112.4,48.8 112.8,48.3 113.2,47.9 113.6,47.5 114,47.2 114.5,46.8 114.9,46.5 115.4,46.2 115.9,45.9 116.4,45.6 116.9,45.4 117.5,45.2 118.1,45 118.7,44.9 119.3,44.7 119.9,44.6 120.6,44.5 121.2,44.5 121.9,44.4 122.6,44.4 122.6,44.4 123.2,44.4 123.8,44.5 124.4,44.5 125,44.6 125.5,44.7 126,44.8 126.5,44.9 126.9,45 127.4,45.1 127.7,45.2 128.1,45.3 128.4,45.4 128.7,45.5 128.9,45.6 129.1,45.7 129.2,45.7 128.2,51 "/><polygon class="st2" points="174.7,70 169.5,70 169.9,68 169.9,67.8 169.6,68.1 169.3,68.5 168.9,68.8 168.6,69 168.3,69.3 167.9,69.5 167.6,69.7 167.2,69.8 166.9,70 166.5,70.1 166.1,70.2 165.8,70.2 165.4,70.3 165,70.3 164.6,70.3 164.3,70.3 163.3,70.3 162.4,70 161.6,69.7 160.8,69.3 160.1,68.7 159.5,68.1 159,67.4 158.5,66.6 158.2,65.8 157.9,64.9 157.6,63.9 157.5,63 157.4,62 157.5,61 157.5,60.1 157.7,59.1 158,58 158.3,56.9 158.7,56 159.2,55.1 159.7,54.2 160.3,53.5 160.9,52.8 161.5,52.2 162.1,51.6 162.8,51.1 163.6,50.7 164.3,50.4 165,50.1 165.8,50 166.5,49.9 167.3,49.8 167.9,49.8 168.4,49.9 168.9,50 169.3,50.1 169.8,50.3 170.1,50.4 170.5,50.7 170.9,50.9 171.2,51.1 171.4,51.3 171.7,51.6 171.9,51.8 172.1,52.1 172.3,52.3 172.4,52.5 172.5,52.8 172.5,52.8 173.9,45.3 179,45.3 174.7,70 174.7,70 "/><polyline class="st3" points="174.7,70 169.5,70 169.9,68 169.9,67.8 169.9,67.8 169.6,68.1 169.3,68.5 168.9,68.8 168.6,69 168.3,69.3 167.9,69.5 167.6,69.7 167.2,69.8 166.9,70 166.5,70.1 166.1,70.2 165.8,70.2 165.4,70.3 165,70.3 164.6,70.3 164.3,70.3 164.3,70.3 163.3,70.3 162.4,70 161.6,69.7 160.8,69.3 160.1,68.7 159.5,68.1 159,67.4 158.5,66.6 158.2,65.8 157.9,64.9 157.6,63.9 157.5,63 157.4,62 157.5,61 157.5,60.1 157.7,59.1 157.7,59.1 158,58 158.3,56.9 158.7,56 159.2,55.1 159.7,54.2 160.3,53.5 160.9,52.8 161.5,52.2 162.1,51.6 162.8,51.1 163.6,50.7 164.3,50.4 165,50.1 165.8,50 166.5,49.9 167.3,49.8 167.3,49.8 167.9,49.8 168.4,49.9 168.9,50 169.3,50.1 169.8,50.3 170.1,50.4 170.5,50.7 170.9,50.9 171.2,51.1 171.4,51.3 171.7,51.6 171.9,51.8 172.1,52.1 172.3,52.3 172.4,52.5 172.5,52.8 172.5,52.8 173.9,45.3 179,45.3 174.7,70 "/><polygon class="st0" points="166.2,65.5 166.7,65.4 167.2,65.3 167.7,65.2 168.1,65 168.5,64.8 168.9,64.5 169.2,64.2 169.5,63.8 169.8,63.4 170.1,63 170.3,62.6 170.5,62.1 170.7,61.7 170.9,61.2 171,60.7 171.1,60.2 171.2,59.6 171.3,59.1 171.3,58.6 171.2,58 171.2,57.5 171.1,57.1 171,56.6 170.8,56.2 170.6,55.8 170.4,55.4 170.2,55.1 169.9,54.9 169.6,54.7 169.2,54.5 168.9,54.4 168.5,54.4 168,54.4 167.5,54.5 167,54.6 166.6,54.8 166.2,55.1 165.9,55.4 165.5,55.7 165.2,56.1 164.9,56.5 164.7,56.9 164.4,57.4 164.2,57.8 164,58.4 163.9,58.9 163.7,59.4 163.6,60 163.5,60.8 163.6,61.7 163.7,62.6 163.9,63.5 164.3,64.3 164.8,64.9 165.4,65.3 166.2,65.5 166.2,65.5 "/><polygon class="st2" points="50.2,65.9 49.4,70 44.7,70 44.8,69.3 44.9,68.6 45,68 45.1,67.8 44.8,68.1 44.5,68.4 44.1,68.7 43.7,68.9 43.3,69.2 42.8,69.4 42.3,69.6 41.8,69.8 41.3,70 40.7,70.1 40.2,70.2 39.6,70.3 39.1,70.4 38.5,70.4 38,70.3 37.5,70.2 36.8,70.1 36.2,69.9 35.7,69.6 35.2,69.4 34.8,69 34.4,68.7 34.1,68.3 33.8,68 33.6,67.6 33.4,67.2 33.3,66.7 33.2,66.3 33.1,65.9 33,65.5 33,65 33,64.6 33.1,63.9 33.2,63.2 33.4,62.5 33.6,61.9 33.9,61.3 34.2,60.7 34.6,60.2 35.1,59.7 35.6,59.3 36.1,58.9 36.6,58.5 37.2,58.2 37.8,58 38.4,57.8 39.1,57.6 39.7,57.5 39.8,57.5 39.9,57.5 40,57.5 40.2,57.4 40.4,57.4 40.7,57.4 41,57.3 41.3,57.3 41.6,57.3 41.9,57.2 42.3,57.2 42.6,57.2 42.9,57.1 43.2,57.1 43.4,57.1 43.6,57.1 44.1,57.1 44.5,57.1 44.9,57.1 45.4,57.1 45.7,57.2 46,57.2 46.2,57.2 46.2,57.2 46.3,57.1 46.4,56.7 46.5,56.3 46.5,56 46.4,55.6 46.3,55.2 46,54.8 45.7,54.6 45.4,54.3 45,54.1 44.5,54 44,54 43.5,54 42.9,54 42.3,54 41.7,54 41.1,54 40.5,54.1 39.9,54.1 39.3,54.2 38.8,54.3 38.2,54.4 37.7,54.5 37.3,54.6 36.8,54.7 36.5,54.8 36.2,54.9 36,55 37.4,50.5 37.8,50.3 38.2,50.2 38.7,50 39.1,49.9 39.6,49.8 40.1,49.8 40.5,49.7 41.1,49.7 41.6,49.6 42.1,49.6 42.7,49.6 43.3,49.6 43.9,49.6 44.5,49.6 45.2,49.6 45.8,49.6 46.4,49.7 46.9,49.7 47.5,49.9 48.1,50 48.7,50.3 49.3,50.5 49.8,50.9 50.4,51.2 50.8,51.6 51.3,52.1 51.6,52.6 51.9,53.2 52.1,53.8 52.2,54.4 52.2,55.1 52.1,55.9 50.2,65.9 50.2,65.9 "/><polyline class="st3" points="50.2,65.9 49.4,70 44.7,70 44.7,70 44.8,69.3 44.9,68.6 45,68 45.1,67.8 45.1,67.8 44.8,68.1 44.5,68.4 44.1,68.7 43.7,68.9 43.3,69.2 42.8,69.4 42.3,69.6 41.8,69.8 41.3,70 40.7,70.1 40.2,70.2 39.6,70.3 39.1,70.4 38.5,70.4 38,70.3 37.5,70.2 37.5,70.2 36.8,70.1 36.2,69.9 35.7,69.6 35.2,69.4 34.8,69 34.4,68.7 34.1,68.3 33.8,68 33.6,67.6 33.4,67.2 33.3,66.7 33.2,66.3 33.1,65.9 33,65.5 33,65 33,64.6 33,64.6 33.1,63.9 33.2,63.2 33.4,62.5 33.6,61.9 33.9,61.3 34.2,60.7 34.6,60.2 35.1,59.7 35.6,59.3 36.1,58.9 36.6,58.5 37.2,58.2 37.8,58 38.4,57.8 39.1,57.6 39.7,57.5 39.7,57.5 39.8,57.5 39.9,57.5 40,57.5 40.2,57.4 40.4,57.4 40.7,57.4 41,57.3 41.3,57.3 41.6,57.3 41.9,57.2 42.3,57.2 42.6,57.2 42.9,57.1 43.2,57.1 43.4,57.1 43.6,57.1 43.6,57.1 44.1,57.1 44.5,57.1 44.9,57.1 45.4,57.1 45.7,57.2 46,57.2 46.2,57.2 46.2,57.2 46.2,57.2 46.3,57.1 46.4,56.7 46.5,56.3 46.5,56 46.5,56 46.4,55.6 46.3,55.2 46,54.8 45.7,54.6 45.4,54.3 45,54.1 44.5,54 44,54 44,54 43.5,54 42.9,54 42.3,54 41.7,54 41.1,54 40.5,54.1 39.9,54.1 39.3,54.2 38.8,54.3 38.2,54.4 37.7,54.5 37.3,54.6 36.8,54.7 36.5,54.8 36.2,54.9 36,55 37.4,50.5 37.4,50.5 37.8,50.3 38.2,50.2 38.7,50 39.1,49.9 39.6,49.8 40.1,49.8 40.5,49.7 41.1,49.7 41.6,49.6 42.1,49.6 42.7,49.6 43.3,49.6 43.9,49.6 44.5,49.6 45.2,49.6 45.8,49.6 45.8,49.6 46.4,49.7 46.9,49.7 47.5,49.9 48.1,50 48.7,50.3 49.3,50.5 49.8,50.9 50.4,51.2 50.8,51.6 51.3,52.1 51.6,52.6 51.9,53.2 52.1,53.8 52.2,54.4 52.2,55.1 52.1,55.9 50.2,65.9 "/><polygon class="st1" points="45.6,60.9 45.6,60.8 45.6,60.7 45.4,60.7 45.3,60.6 45,60.6 44.8,60.6 44.5,60.6 44.2,60.6 43.9,60.6 43.6,60.6 43.3,60.7 43,60.7 42.7,60.8 42.5,60.8 42.2,60.9 42,60.9 41.9,61 41.7,61 41.5,61.1 41.3,61.2 41.1,61.3 40.8,61.4 40.6,61.6 40.3,61.7 40.1,61.9 39.8,62.1 39.6,62.3 39.4,62.6 39.2,62.8 39.1,63.1 38.9,63.4 38.9,63.7 38.9,64.3 39,64.8 39.2,65.2 39.4,65.5 39.7,65.7 40,65.8 40.3,65.8 40.6,65.9 41.2,65.8 41.7,65.8 42.2,65.7 42.6,65.6 43,65.5 43.3,65.3 43.7,65.1 43.9,64.9 44.2,64.7 44.4,64.5 44.6,64.3 44.8,64.1 44.9,63.8 45,63.6 45.1,63.4 45.2,63.2 45.3,62.6 45.4,62 45.6,61.4 45.6,60.9 45.6,60.9 "/><polygon class="st2" points="10.5,70 5.3,70 9.6,45.3 18.5,45.3 19.4,60 25.6,45.3 34.9,45.3 30.5,70 25.4,70 28.6,51.5 28.4,51.5 20.7,70 14.9,70 14.9,69.3 14.8,67.2 14.6,64.3 14.4,60.9 14.2,57.5 14.1,54.6 13.9,52.4 13.9,51.5 13.8,51.5 13.7,51.5 13.6,51.5 13.6,51.5 10.5,70 10.5,70 "/><polyline class="st3" points="10.5,70 5.3,70 9.6,45.3 18.5,45.3 19.4,60 25.6,45.3 34.9,45.3 30.5,70 25.4,70 28.6,51.5 28.4,51.5 20.7,70 14.9,70 14.9,70 14.9,69.3 14.8,67.2 14.6,64.3 14.4,60.9 14.2,57.5 14.1,54.6 13.9,52.4 13.9,51.5 13.9,51.5 13.8,51.5 13.7,51.5 13.6,51.5 13.6,51.5 10.5,70 "/><polygon class="st2" points="143.9,65.9 143.2,70 138.4,70 138.5,69.3 138.5,68.6 138.5,68.1 138.5,67.9 138.3,68.1 138,68.4 137.6,68.7 137.3,69 136.9,69.2 136.4,69.4 135.9,69.7 135.5,69.8 135,70 134.4,70.1 133.9,70.2 133.4,70.3 132.8,70.4 132.3,70.4 131.8,70.3 131.3,70.2 130.6,70.1 130,69.9 129.5,69.6 129,69.4 128.6,69 128.2,68.7 127.9,68.3 127.6,68 127.4,67.6 127.2,67.2 127.1,66.7 127,66.3 126.9,65.9 126.9,65.5 126.8,65 126.8,64.6 126.9,63.9 127,63.2 127.1,62.5 127.4,61.9 127.7,61.3 128,60.7 128.4,60.2 128.9,59.7 129.4,59.3 129.9,58.9 130.4,58.5 131,58.2 131.6,58 132.2,57.8 132.8,57.6 133.5,57.5 133.5,57.5 133.6,57.5 133.7,57.5 133.9,57.4 134.2,57.4 134.4,57.4 134.7,57.3 135,57.3 135.3,57.3 135.7,57.2 136,57.2 136.3,57.2 136.6,57.1 136.9,57.1 137.2,57.1 137.4,57.1 137.8,57.1 138.3,57.1 138.7,57.1 139.1,57.1 139.5,57.2 139.8,57.2 139.9,57.2 140,57.2 140.1,57.1 140.1,56.7 140.2,56.3 140.2,56 140.1,55.6 140,55.2 139.7,54.8 139.5,54.6 139.1,54.3 138.7,54.1 138.3,54 137.9,54 137.3,54 136.8,54 136.2,54 135.6,54 134.9,54 134.3,54.1 133.7,54.1 133.1,54.2 132.6,54.3 132,54.4 131.5,54.5 131.1,54.6 130.7,54.7 130.3,54.8 130.1,54.9 129.9,55 131.2,50.5 131.6,50.3 132,50.2 132.5,50 132.9,49.9 133.4,49.8 133.9,49.8 134.4,49.7 134.9,49.7 135.4,49.6 135.9,49.6 136.5,49.6 137.1,49.6 137.7,49.6 138.3,49.6 138.9,49.6 139.5,49.6 140.1,49.7 140.6,49.7 141.2,49.9 141.8,50 142.4,50.3 143,50.5 143.6,50.9 144.1,51.2 144.6,51.6 145,52.1 145.4,52.6 145.7,53.2 145.9,53.8 146,54.4 146,55.1 145.9,55.9 143.9,65.9 143.9,65.9 "/><polygon class="st2" points="143.2,70.2 143.3,70.1 144,65.9 143.8,65.8 143,70 143.2,69.9 143.2,70.2 143.3,70.2 143.3,70.1 143.2,70.2 143.2,70.2 "/><polygon class="st2" points="138.3,70 138.4,70.2 143.2,70.2 143.2,69.9 138.4,69.9 138.5,70 138.3,70 138.3,70.2 138.4,70.2 138.3,70 138.3,70 "/><polygon class="st2" points="138.6,67.9 138.4,67.8 138.4,68.1 138.3,68.6 138.3,69.3 138.3,70 138.5,70 138.6,69.3 138.6,68.6 138.6,68.1 138.6,67.9 138.4,67.8 138.6,67.9 138.6,67.9 "/><polygon class="st2" points="131.3,70.4 131.3,70.4 131.8,70.4 132.3,70.5 132.8,70.5 133.4,70.4 133.9,70.4 134.5,70.3 135,70.1 135.5,70 136,69.8 136.5,69.5 136.9,69.3 137.3,69 137.7,68.8 138.1,68.5 138.4,68.2 138.6,67.9 138.4,67.8 138.2,68.1 137.9,68.3 137.6,68.6 137.2,68.9 136.8,69.1 136.4,69.3 135.9,69.5 135.4,69.7 134.9,69.9 134.4,70 133.9,70.1 133.4,70.2 132.8,70.2 132.3,70.3 131.8,70.2 131.3,70.1 131.3,70.1 131.3,70.4 131.3,70.4 "/><polygon class="st2" points="126.7,64.6 126.7,64.6 126.7,65 126.7,65.5 126.8,65.9 126.9,66.3 127,66.8 127.1,67.2 127.3,67.6 127.5,68 127.8,68.4 128.1,68.8 128.5,69.1 128.9,69.4 129.4,69.7 130,70 130.6,70.2 131.3,70.4 131.3,70.1 130.6,70 130,69.8 129.5,69.5 129,69.3 128.6,69 128.3,68.6 128,68.3 127.7,67.9 127.5,67.5 127.3,67.1 127.2,66.7 127.1,66.3 127,65.9 127,65.5 126.9,65 127,64.6 127,64.6 126.7,64.6 126.7,64.6 "/><polygon class="st2" points="133.5,57.4 133.5,57.4 132.8,57.5 132.2,57.7 131.5,57.9 130.9,58.1 130.4,58.4 129.8,58.8 129.3,59.2 128.8,59.7 128.3,60.1 127.9,60.7 127.6,61.2 127.3,61.9 127,62.5 126.9,63.2 126.7,63.9 126.7,64.6 127,64.6 127,63.9 127.1,63.2 127.3,62.6 127.5,61.9 127.8,61.3 128.1,60.8 128.5,60.3 128.9,59.8 129.4,59.4 129.9,59 130.5,58.7 131.1,58.4 131.6,58.1 132.2,57.9 132.8,57.7 133.5,57.6 133.5,57.6 133.5,57.4 133.5,57.4 "/><polygon class="st2" points="137.4,57 137.4,57 137.2,57 136.9,57 136.6,57 136.3,57.1 136,57.1 135.7,57.1 135.3,57.1 135,57.2 134.7,57.2 134.4,57.3 134.2,57.3 133.9,57.3 133.7,57.3 133.6,57.4 133.5,57.4 133.5,57.4 133.5,57.6 133.5,57.6 133.6,57.6 133.7,57.6 133.9,57.5 134.2,57.5 134.4,57.5 134.7,57.5 135,57.4 135.3,57.4 135.7,57.3 136,57.3 136.3,57.3 136.6,57.3 136.9,57.2 137.2,57.2 137.4,57.2 137.4,57.2 137.4,57 137.4,57 "/><polygon class="st2" points="139.9,57.2 140,57.1 139.9,57.1 139.8,57.1 139.5,57.1 139.1,57 138.7,57 138.3,57 137.8,57 137.4,57 137.4,57.2 137.8,57.2 138.3,57.2 138.7,57.3 139.1,57.3 139.5,57.3 139.8,57.3 139.9,57.3 140,57.3 140.1,57.2 140,57.3 140.1,57.3 140.1,57.2 139.9,57.2 139.9,57.2 "/><polygon class="st2" points="140.1,56 140.1,56 140.1,56.3 140,56.7 139.9,57.1 139.9,57.2 140.1,57.2 140.2,57.1 140.2,56.8 140.3,56.3 140.3,56 140.3,56 140.1,56 140.1,56 "/><polygon class="st2" points="137.9,54.1 137.9,54.1 138.3,54.1 138.7,54.3 139.1,54.4 139.4,54.7 139.6,54.9 139.9,55.2 140,55.6 140.1,56 140.3,56 140.2,55.5 140.1,55.1 139.8,54.8 139.5,54.5 139.2,54.2 138.8,54 138.3,53.9 137.9,53.9 137.9,53.9 137.9,54.1 137.9,54.1 "/><polygon class="st2" points="129.7,55 129.9,55.1 130.1,55 130.4,54.9 130.7,54.8 131.1,54.7 131.6,54.6 132.1,54.5 132.6,54.4 133.1,54.3 133.7,54.2 134.3,54.2 134.9,54.1 135.6,54.1 136.2,54.1 136.8,54.1 137.3,54.1 137.9,54.1 137.9,53.9 137.3,53.9 136.8,53.8 136.2,53.8 135.6,53.9 134.9,53.9 134.3,54 133.7,54 133.1,54.1 132.6,54.2 132,54.3 131.5,54.4 131.1,54.4 130.7,54.6 130.3,54.7 130,54.8 129.8,54.9 130,55.1 129.7,55 129.7,55 "/><polygon class="st2" points="131.1,50.4 131.1,50.5 129.7,55 130,55.1 131.3,50.5 131.2,50.6 131.1,50.4 131.1,50.4 131.1,50.5 131.1,50.4 131.1,50.4 "/><polygon class="st2" points="139.5,49.5 139.5,49.5 138.9,49.5 138.3,49.4 137.7,49.4 137.1,49.4 136.5,49.4 135.9,49.5 135.4,49.5 134.9,49.5 134.4,49.6 133.8,49.7 133.4,49.7 132.9,49.8 132.4,49.9 132,50 131.6,50.2 131.1,50.4 131.2,50.6 131.6,50.4 132.1,50.3 132.5,50.1 132.9,50 133.4,50 133.9,49.9 134.4,49.8 134.9,49.8 135.4,49.7 135.9,49.7 136.5,49.7 137.1,49.7 137.7,49.7 138.3,49.7 138.9,49.7 139.5,49.7 139.5,49.7 139.5,49.5 139.5,49.5 "/><polygon class="st2" points="146,55.9 146,55.9 146.1,55.1 146.1,54.4 146,53.8 145.8,53.1 145.5,52.5 145.1,52 144.6,51.5 144.2,51.1 143.6,50.8 143.1,50.4 142.5,50.2 141.9,49.9 141.2,49.8 140.7,49.6 140.1,49.5 139.5,49.5 139.5,49.7 140.1,49.8 140.6,49.9 141.2,50 141.8,50.2 142.4,50.4 142.9,50.7 143.5,51 144,51.3 144.5,51.7 144.9,52.2 145.3,52.7 145.6,53.2 145.8,53.8 145.9,54.4 145.9,55.1 145.8,55.9 145.8,55.9 146,55.9 146,55.9 "/><polygon class="st2" points="144,65.9 144,65.9 146,55.9 145.8,55.9 143.8,65.8 143.8,65.8 144,65.9 144,65.9 "/><polygon class="st0" points="139.4,60.9 139.3,60.8 139.2,60.7 139.1,60.7 138.9,60.6 138.7,60.6 138.5,60.6 138.2,60.6 137.9,60.6 137.6,60.6 137.3,60.7 137,60.7 136.7,60.7 136.4,60.8 136.2,60.8 135.9,60.9 135.8,60.9 135.6,60.9 135.5,61 135.3,61.1 135.1,61.1 134.8,61.2 134.6,61.4 134.3,61.5 134.1,61.7 133.8,61.8 133.6,62 133.4,62.2 133.2,62.5 133,62.8 132.9,63 132.8,63.3 132.7,63.7 132.7,64.3 132.8,64.8 132.9,65.2 133.2,65.5 133.4,65.7 133.8,65.8 134.1,65.8 134.4,65.9 135,65.8 135.5,65.8 136,65.7 136.4,65.6 136.8,65.4 137.2,65.2 137.5,65 137.9,64.8 138.1,64.6 138.3,64.4 138.5,64.1 138.7,63.9 138.9,63.7 138.9,63.4 139,63.2 139.1,63 139.2,62.5 139.2,61.9 139.3,61.4 139.4,60.9 139.4,60.9 "/><polygon class="st2" points="178.3,67.5 178.3,67 178.5,66.5 178.7,66.1 179,65.7 179.4,65.3 179.9,65.1 180.4,65 180.9,64.9 181.4,65 181.9,65.1 182.4,65.3 182.8,65.7 183.1,66.1 183.4,66.5 183.5,67 183.6,67.5 183,67.5 183,67.1 182.9,66.7 182.7,66.3 182.4,66 182.1,65.7 181.8,65.6 181.3,65.4 180.9,65.4 180.5,65.4 180.1,65.6 179.7,65.7 179.4,66 179.2,66.3 179,66.7 178.9,67.1 178.8,67.5 178.3,67.5 178.3,67.5 "/><polygon class="st2" points="180,67.5 180,66.3 181,66.3 181.2,66.3 181.4,66.4 181.6,66.4 181.7,66.5 181.8,66.6 181.9,66.7 181.9,66.9 181.9,67 181.9,67.2 181.9,67.3 181.8,67.4 181.8,67.5 181,67.5 181.1,67.4 181.2,67.4 181.3,67.4 181.4,67.3 181.5,67.3 181.5,67.2 181.6,67.1 181.6,67 181.6,66.9 181.5,66.8 181.5,66.8 181.4,66.8 181.3,66.7 181.2,66.7 181.1,66.7 181,66.7 180.4,66.7 180.4,67.5 180,67.5 180,67.5 "/><polygon class="st2" points="178.3,67.5 178.2,67.6 178.3,68.1 178.5,68.6 178.7,69.1 179,69.5 179.4,69.8 179.9,70 180.4,70.2 180.9,70.2 181.4,70.2 181.9,70 182.4,69.8 182.8,69.5 183.1,69.1 183.4,68.6 183.5,68.1 183.6,67.6 183.6,67.5 183,67.5 183,67.6 183,68 182.9,68.4 182.7,68.8 182.4,69.1 182.1,69.4 181.8,69.6 181.3,69.7 180.9,69.8 180.5,69.7 180.1,69.6 179.7,69.4 179.4,69.1 179.2,68.8 179,68.4 178.9,68 178.8,67.6 178.8,67.5 178.3,67.5 178.3,67.5 "/><polygon class="st2" points="180,67.5 180,68.6 180.4,68.6 180.4,67.7 180.9,67.7 181.5,68.6 181.9,68.6 181.3,67.7 181.4,67.7 181.6,67.6 181.7,67.6 181.8,67.5 181.8,67.5 181,67.5 180.9,67.5 180.4,67.5 180.4,67.5 180,67.5 180,67.5 "/><path class="st3" d="M178.2,67.6L178.2,67.6l0.1-0.5l0.2-0.5l0.3-0.5l0.3-0.4l0.4-0.3l0.5-0.2l0.5-0.2l0.5-0.1l0,0l0.5,0.1l0.5,0.2l0.5,0.2l0.4,0.3l0.3,0.4l0.3,0.5l0.2,0.5l0.1,0.5l0,0l-0.1,0.5l-0.2,0.5l-0.3,0.5l-0.3,0.4l-0.4,0.3l-0.5,0.2l-0.5,0.2l-0.5,0.1l0,0l-0.5-0.1l-0.5-0.2l-0.5-0.2l-0.4-0.3l-0.3-0.4l-0.3-0.5l-0.2-0.5L178.2,67.6 M180.4,68.6H180v-2.3h1l0,0l0.2,0l0.2,0l0.2,0.1l0.1,0.1l0.1,0.1l0.1,0.1l0,0.1l0,0.1l0,0l0,0.2l0,0.1l-0.1,0.1l-0.1,0.1l-0.1,0.1l-0.1,0l-0.1,0h-0.1l0.6,0.9h-0.4l-0.6-0.9h-0.5V68.6 M180.9,67.5L180.9,67.5l0.2,0l0.1,0l0.1,0l0.1,0l0.1-0.1l0-0.1l0-0.1V67l0,0l0-0.1l0-0.1l-0.1,0l-0.1,0l-0.1,0l-0.1,0h-0.1H181h-0.6v0.8H180.9 M180.9,69.8L180.9,69.8l0.4,0l0.4-0.1l0.4-0.2l0.3-0.3l0.2-0.3l0.2-0.4L183,68l0-0.5l0,0l0-0.5l-0.1-0.4l-0.2-0.4l-0.2-0.3l-0.3-0.3l-0.4-0.2l-0.4-0.1l-0.4,0l0,0l-0.4,0l-0.4,0.1l-0.4,0.2l-0.3,0.3l-0.2,0.3l-0.2,0.4l-0.1,0.4l0,0.5l0,0l0,0.5l0.1,0.4l0.2,0.4l0.2,0.3l0.3,0.3l0.4,0.2l0.4,0.1L180.9,69.8"/><polygon class="st2" points="145.3,70 150.7,70 150.7,70 152.6,59.3 152.7,58.9 152.8,58.5 152.9,58.1 153,57.6 153.2,57.2 153.5,56.8 153.7,56.5 154,56.1 154.3,55.8 154.7,55.5 155.2,55.2 155.6,55 156.2,54.8 156.8,54.6 157.5,54.5 158.2,54.5 158.5,54.5 158.6,54.5 158.7,54.5 158.7,54.5 159.5,49.6 159,49.7 158.5,49.7 158,49.8 157.5,49.9 157.1,50.1 156.7,50.3 156.4,50.5 156,50.7 155.7,51 155.3,51.2 155,51.5 154.7,51.8 154.5,52.2 154.2,52.5 153.9,52.9 153.6,53.2 154.2,49.8 148.9,49.8 145.3,70 145.3,70 145.3,70 "/><polyline class="st3" points="145.3,70 150.7,70 150.7,70 152.6,59.3 152.6,59.3 152.7,58.9 152.8,58.5 152.9,58.1 153,57.6 153.2,57.2 153.5,56.8 153.7,56.5 154,56.1 154.3,55.8 154.7,55.5 155.2,55.2 155.6,55 156.2,54.8 156.8,54.6 157.5,54.5 158.2,54.5 158.2,54.5 158.5,54.5 158.6,54.5 158.7,54.5 158.7,54.5 159.5,49.6 159.5,49.6 159,49.7 158.5,49.7 158,49.8 157.5,49.9 157.1,50.1 156.7,50.3 156.4,50.5 156,50.7 155.7,51 155.3,51.2 155,51.5 154.7,51.8 154.5,52.2 154.2,52.5 153.9,52.9 153.6,53.2 154.2,49.8 148.9,49.8 145.3,70 145.3,70 "/><polygon class="st2" points="95.3,70 100.7,70 100.8,70 102.6,59.3 102.6,58.9 102.7,58.5 102.8,58.1 103,57.7 103.1,57.3 103.3,57 103.5,56.6 103.8,56.3 104.1,56 104.4,55.8 104.9,55.5 105.3,55.3 105.8,55.1 106.4,55 107.1,54.9 107.8,54.8 107.9,54.8 107.9,54.9 108,54.9 108.1,54.9 108.2,54.9 108.3,54.9 108.3,54.9 108.4,54.9 108.4,54.9 108.4,54.6 108.5,54.3 108.6,53.9 108.7,53.4 108.9,52.9 109,52.3 109.2,51.8 109.4,51.4 109.6,51.1 109.7,50.7 109.9,50.4 110.1,50.1 110.2,49.9 110.3,49.8 110.4,49.7 110.4,49.7 110.3,49.7 110.2,49.7 110,49.7 109.9,49.7 109.8,49.6 109.6,49.6 109.5,49.6 108.9,49.7 108.4,49.7 107.9,49.8 107.4,49.9 107,50.1 106.6,50.3 106.3,50.4 105.9,50.7 105.6,50.9 105.3,51.2 105,51.5 104.7,51.8 104.4,52.1 104.2,52.5 103.9,52.9 103.6,53.2 104.3,49.8 98.9,49.8 95.3,70 95.3,70 95.3,70 "/><polyline class="st3" points="95.3,70 100.7,70 100.8,70 102.6,59.3 102.6,59.3 102.6,58.9 102.7,58.5 102.8,58.1 103,57.7 103.1,57.3 103.3,57 103.5,56.6 103.8,56.3 104.1,56 104.4,55.8 104.9,55.5 105.3,55.3 105.8,55.1 106.4,55 107.1,54.9 107.8,54.8 107.8,54.8 107.9,54.8 107.9,54.9 108,54.9 108.1,54.9 108.2,54.9 108.3,54.9 108.3,54.9 108.4,54.9 108.4,54.9 108.4,54.9 108.4,54.6 108.5,54.3 108.6,53.9 108.7,53.4 108.9,52.9 109,52.3 109.2,51.8 109.2,51.8 109.4,51.4 109.6,51.1 109.7,50.7 109.9,50.4 110.1,50.1 110.2,49.9 110.3,49.8 110.4,49.7 110.4,49.7 110.4,49.7 110.3,49.7 110.2,49.7 110,49.7 109.9,49.7 109.8,49.6 109.6,49.6 109.5,49.6 109.5,49.6 108.9,49.7 108.4,49.7 107.9,49.8 107.4,49.9 107,50.1 106.6,50.3 106.3,50.4 105.9,50.7 105.6,50.9 105.3,51.2 105,51.5 104.7,51.8 104.4,52.1 104.2,52.5 103.9,52.9 103.6,53.2 104.3,49.8 98.9,49.8 95.3,70 95.3,70 "/><polygon class="st0" points="178.3,89.9 178.3,89.8 178.5,89.4 178.7,88.9 179,88.5 179.4,88.2 179.9,88 180.4,87.9 180.9,87.8 181.4,87.9 181.9,88 182.4,88.2 182.8,88.5 183.1,88.9 183.4,89.4 183.5,89.8 183.5,89.9 183,89.9 182.9,89.5 182.7,89.2 182.4,88.8 182.1,88.6 181.8,88.4 181.3,88.2 180.9,88.2 180.5,88.2 180.1,88.4 179.7,88.6 179.4,88.8 179.2,89.2 179,89.5 178.9,89.9 178.3,89.9 178.3,89.9 "/><polygon class="st0" points="180,89.9 180,89.3 181,89.3 181.2,89.3 181.4,89.3 181.6,89.3 181.7,89.4 181.8,89.5 181.9,89.6 181.9,89.7 181.9,89.9 181.6,89.9 181.6,89.8 181.6,89.7 181.5,89.7 181.5,89.6 181.4,89.6 181.3,89.6 181.2,89.5 181.1,89.5 181,89.5 180.4,89.5 180.4,89.9 180,89.9 180,89.9 "/><polygon class="st0" points="178.2,90.3 178.3,89.9 178.9,89.9 178.9,89.9 178.8,90.3 178.2,90.3 178.2,90.3 "/><polygon class="st0" points="180,90.3 180,89.9 180.4,89.9 180.4,90.3 180.9,90.3 181.1,90.3 181.2,90.2 181.3,90.2 181.4,90.2 181.5,90.1 181.5,90 181.6,90 181.6,89.9 181.9,89.9 181.9,89.9 181.9,90 181.9,90.2 181.8,90.3 181.8,90.3 180,90.3 180,90.3 "/><polygon class="st0" points="183,90.3 183,89.9 183,89.9 183.5,89.9 183.6,90.3 183,90.3 183,90.3 "/><polygon class="st0" points="178.2,90.3 178.2,90.4 178.3,90.9 178.5,91.4 178.7,91.9 179,92.3 179.4,92.6 179.9,92.8 180.4,93 180.9,93.1 181.4,93 181.9,92.8 182.4,92.6 182.8,92.3 183.1,91.9 183.4,91.4 183.5,90.9 183.6,90.4 183.6,90.3 183,90.3 183,90.4 183,90.8 182.9,91.3 182.7,91.6 182.4,91.9 182.1,92.2 181.8,92.4 181.3,92.5 180.9,92.6 180.5,92.5 180.1,92.4 179.7,92.2 179.4,91.9 179.2,91.6 179,91.3 178.9,90.8 178.8,90.4 178.8,90.3 178.2,90.3 178.2,90.3 "/><polygon class="st0" points="180,90.3 180,91.4 180.4,91.4 180.4,90.5 180.9,90.5 181.5,91.4 181.9,91.4 181.3,90.5 181.4,90.5 181.6,90.4 181.7,90.4 181.8,90.3 181.8,90.3 180,90.3 180,90.3 "/></g><g><polygon class="st4" points="66.9,183.5 76.1,130 90.7,130 81.5,183.5 66.9,183.5 "/><path class="st4" d="M134.4,131.3c-2.9-1-7.5-2.2-13.1-2.2c-14.5,0-24.6,7.2-24.6,17.6c-0.1,7.7,7.2,12,12.8,14.5c5.7,2.7,7.6,4.3,7.5,6.6c0,3.6-4.5,5.2-8.7,5.2c-5.8,0-8.9-0.8-13.7-2.8l-1.9-0.9l-2,12c3.4,1.5,9.7,2.8,16.2,2.9c15.3,0,25.2-7.2,25.4-18.3c0.1-6-3.8-10.7-12.2-14.5c-5.1-2.4-8.2-4.1-8.2-6.6c0-2.3,2.7-4.6,8.3-4.6c4.8-0.1,8.3,1,10.9,2.1l1.3,0.6L134.4,131.3L134.4,131.3z"/><path class="st4" d="M171.8,130.1h-11.3c-3.5,0-6.1,1-7.7,4.4l-21.6,49.1h15.3c0,0,2.5-6.6,3.1-8c1.7,0,16.5,0,18.7,0c0.4,1.8,1.8,8,1.8,8h13.5L171.8,130.1L171.8,130.1z M153.8,164.5c1.2-3,5.8-14.9,5.8-14.9c-0.1,0.1,1.2-3.1,1.9-5.1l1,4.6c0,0,2.8,12.8,3.4,15.4H153.8L153.8,164.5z"/><path class="st4" d="M54.7,130.1l-14.3,36.4l-1.5-7.4c-2.7-8.6-11-17.8-20.2-22.4l13.1,46.8h15.4l22.9-53.4H54.7L54.7,130.1z"/><path class="st5" d="M27.2,130H3.7l-0.1,1.2c18.2,4.4,30.4,15.1,35.4,28l-5.2-24.6C32.9,131.2,30.4,130.2,27.2,130L27.2,130z"/></g></svg>