<?xml version="1.0" encoding="UTF-8" standalone="no"?><svg   xmlns:dc="http://purl.org/dc/elements/1.1/"   xmlns:cc="http://creativecommons.org/ns#"   xmlns:rdf="http://www.w3.org/1999/02/22-rdf-syntax-ns#"   xmlns:svg="http://www.w3.org/2000/svg"   xmlns="http://www.w3.org/2000/svg"   viewBox="0 0 215.28934 130.29066"   height="171.29066"   width="225.28934"   xml:space="preserve"   id="svg2"   version="1.1"><metadata     id="metadata8"><rdf:RDF><cc:Work         rdf:about=""><dc:format>image/svg+xml</dc:format><dc:type           rdf:resource="http://purl.org/dc/dcmitype/StillImage" /></cc:Work></rdf:RDF></metadata><defs     id="defs6"><clipPath       id="clipPath18"       clipPathUnits="userSpaceOnUse"><path         id="path16"         d="M 0,128.468 H 168.967 V 0 H 0 Z" /></clipPath></defs><g     transform="matrix(1.3333333,0,0,-1.3333333,0,171.29067)"     id="g10"><g       id="g12"><g         clip-path="url(#clipPath18)"         id="g14"><g           transform="translate(105.9189,64.167)"           id="g20"><path             id="path22"             style="fill:#00a768;fill-opacity:1;fill-rule:nonzero;stroke:none"             d="m 0,0 c -2.172,0 -3.932,1.758 -3.932,3.93 0,2.172 1.76,3.933 3.932,3.933 2.172,0 3.932,-1.761 3.932,-3.933 C 3.932,1.758 2.172,0 0,0 m -9.219,0 c -2.171,0 -3.932,1.758 -3.932,3.93 0,2.172 1.761,3.933 3.932,3.933 2.172,0 3.933,-1.761 3.933,-3.933 C -5.286,1.758 -7.047,0 -9.219,0 m -9.223,0 c -2.171,0 -3.931,1.758 -3.931,3.93 0,2.172 1.76,3.933 3.931,3.933 2.172,0 3.933,-1.761 3.933,-3.933 0,-2.172 -1.761,-3.93 -3.933,-3.93 m 0.642,48.389 v -32.442 -0.02 l -0.005,-0.003 c -0.013,-1.408 -1.157,-2.541 -2.567,-2.541 h -3.872 c -0.193,-10e-4 -0.348,-0.156 -0.348,-0.35 v -27.201 c 0.959,-0.086 1.927,-0.135 2.907,-0.135 17.379,0 31.465,14.088 31.465,31.466 0,16.061 -12.035,29.311 -27.58,31.226" /></g><g           transform="translate(78.2036,86.8486)"           id="g24"><path             id="path26"             style="fill:#00a768;fill-opacity:1;fill-rule:nonzero;stroke:none"             d="m 0,0 c -2.171,0 -3.932,1.76 -3.932,3.932 0,2.171 1.761,3.932 3.932,3.932 2.171,0 3.932,-1.761 3.932,-3.932 C 3.932,1.76 2.171,0 0,0 m 6.031,25.945 c -17.376,0 -31.464,-14.088 -31.464,-31.463 0,-15.082 10.612,-27.686 24.777,-30.753 v 28.235 l 0.002,0.003 c 0.028,1.361 1.114,2.46 2.468,2.511 l 0.003,0.002 h 3.968 c 0.186,0 0.338,0.147 0.349,0.33 l 0.002,31.129 z" /></g><g           transform="translate(149.3608,31.3477)"           id="g28"></g></g></g></g></svg>