<svg height="22" width="22" xmlns="http://www.w3.org/2000/svg"><g name="Layer 1"><path d="m23.0669 21.2687-23.0669.7013v-21.7l22.5409.70135z" fill="none"/><path d="m10.88 19.17c4.06 0 5.9-3.22 5.9-6.43 0-4.52-3.16-9.68-5.9-9.68-2.76 0-5.9 5.16-5.9 9.68 0 3.2 1.82 6.44 5.9 6.44m10.86.65c0 1.2-.97 2.17-2.17 2.17h-17.41c-1.190001 0-2.16-.98-2.16-2.18v-17.4c0-1.2.98-2.17 2.18-2.17h17.4c1.2 0 2.17.97 2.17 2.17v17.4" fill="#e81e23" fill-rule="evenodd"/><path d="m16.76 12.72c0-4.52-3.14-9.67-5.88-9.67-2.75 0-5.9 5.15-5.9 9.67 0 3.2 1.83 6.45 5.9 6.45s5.88-3.24 5.88-6.45z" fill="#fff" fill-rule="evenodd"/></g></svg>