<?xml version="1.0" encoding="UTF-8" standalone="no"?><svg width="553px" height="549px" viewBox="0 0 553 549" version="1.1" xmlns="http://www.w3.org/2000/svg" xmlns:xlink="http://www.w3.org/1999/xlink" xmlns:sketch="http://www.bohemiancoding.com/sketch/ns">    <title>paypal_icon@2x</title>    <description>Created with Sketch (http://www.bohemiancoding.com/sketch)</description>    <defs></defs>    <g id="Page-1" stroke="none" stroke-width="1" fill="none" fill-rule="evenodd" sketch:type="MSPage">        <g id="1393930506_paypal" sketch:type="MSLayerGroup">            <path d="M539.87224,150.771708 C531.329149,134.358303 518.49722,121.023492 502.137375,110.974822 L496.603389,108 C505.215655,124.136677 509.400731,144.182132 509.296969,168.119068 C509.400731,223.585654 485.967761,268.432818 439.119113,302.280061 C392.201291,336.196486 326.969434,353.11146 242.783677,353.180642 L223.120734,353.180642 C208.213561,353.180642 193.496617,364.837791 190.331869,378.881716 L166.622199,471.84489 C163.284514,486.338497 148.532984,497.75351 133.660397,497.75351 L93.5908821,497.75351 L87.6764349,523.125971 C84.3387498,537.273669 93.6773506,549 108.532643,549 L177.344297,549 C192.216883,549 206.968414,537.584987 210.306099,523.125971 L234.015769,422.570084 C237.180517,408.543454 251.89746,396.9036 266.804634,396.9036 L286.48487,396.9036 C370.618747,396.834418 435.919778,379.919445 482.8376,346.00302 C529.65166,312.155777 553.084631,267.325908 552.998162,211.842027 C553.101924,187.438113 548.813085,167.064044 539.87224,150.771708 L539.87224,150.771708 Z" id="Shape" fill="#26A6D1" sketch:type="MSShapeGroup"></path>            <path d="M452.87209,67.8535011 C444.294314,51.4434673 431.496825,38.0941037 415.102205,28.0474971 C398.15418,17.7415117 378.387249,10.6345319 355.369064,6.36342721 C332.229822,2.28253367 305.199451,0.276670748 274.156895,0 L130.513736,0.103751531 C115.606391,0.29396267 100.975749,11.8103826 97.5342626,25.9378827 L0.671111287,440.131285 C-2.64931811,454.276077 6.67209566,466 21.5448523,466 L90.3572928,466 C105.230049,466 119.981749,454.587332 123.319472,440.131285 L147.029413,339.613344 C150.194198,325.572303 164.911309,313.93484 179.818654,313.93484 L199.499115,313.93484 C283.651248,313.865672 348.935732,296.954173 395.836797,263.027422 C442.685981,229.204423 466.101926,184.36647 465.998162,128.911277 C466.101926,104.512375 461.813038,84.1424914 452.87209,67.8535011 M304.050717,203.534077 C283.345797,218.505576 254.65223,226 217.417883,226 L200.577882,226 C185.739356,226 176.387634,214.376704 179.648659,200.064436 L200.31907,111.97026 C203.476571,97.77943 218.263334,86 233.10186,86.1387856 L255.566697,86 C281.810182,86 301.755921,90.44114 315.214119,99.2713755 C328.499776,107.876084 335.228875,121.459727 334.987317,139.710037 C335.41867,167.258984 324.841907,188.527881 304.050717,203.534077" id="Shape" fill="#324D5B" sketch:type="MSShapeGroup"></path>        </g>    </g></svg>