<svg viewBox="0 0 63 66" xmlns="http://www.w3.org/2000/svg"><g id="v2" fill="none" fill-rule="evenodd"><path d="m44.899 46.13c-.013-.044-.016-.044-.047-.045-.01 0-.014-.003-.016-.003-.052-.004-.057-.007-.063-.007-.044 0-.052 0-.054-.001-.007-.004-.06-.049-.071-.054-.422-.063-.796-.003-1.112.189-.737.539-.859 1.648-.247 2.559.258.382.63.682 1.057.811 0 0 .001 0 .02.005 0 0 .039.047.043.047.009.001.053.001.059.003.005 0 .007.003.043.004.02.001.062.007.082.007.377.062.797.046 1.111-.188.741-.495.861-1.601.246-2.516-.264-.379-.671-.68-1.053-.812m17.391 17.621c-1.792-3.622-4.952-6.313-8.411-8.341-1.179-.73-2.535-1.225-3.712-1.597-2.67-.861-5.283-1.097-8.353-1.595-2.471-.428-4.401-1.419-6.503-2.879-1.108-.736-1.981-1.732-2.734-2.83-.131-.194-.849-1.049-.785-1.352 0 0-.461 1.958.491 4.667-8.851-.377-16.625-5.283-20.17-11.233-6.553-10.902-4.249-24.14 4.474-29.991 8.738-5.84 22.05-1.724 29.18 8.835 4.458 6.629 5.581 14.335 3.662 20.598-.002.056-.008.07-.013.127-3.807-2.712-7.249-1.348-7.249-1.348 3.79-.373 6.768 2.634 6.768 2.634.439.373.865.805 1.285 1.292.069.124.137.244.25.367.992 1.349 1.61 2.829 1.862 4.357 7.545-9.517 8.782-22.714 2.108-32.952-8.483-13.06-26.57-16.382-40.4-7.447-13.819 8.934-18.15 26.742-9.667 39.792 6.984 10.744 23.337 14 32.735 11.05 3.531-1.106 15.663-2.156 24.13 7.795 0 0 .741.849 1.117 1.78 0 0 .122.322.433.181.069-.057.312-.31-.492-1.912m-12.498-19.699c.622.245.993 1.236 1.111 1.726.246 1.105-.127 1.589-.483 1.399-.322-.18-.807-1.037-1.129-2.144-.176-.488-.117-1.222.501-.981" id="Fill-1" fill="#f90"/><g fill="#0023a0"></g></g></svg>