<svg height="192.756" width="192.756" xmlns="http://www.w3.org/2000/svg"><g fill-rule="evenodd" name="Layer 1"><path d="m134.803 121.06h9.25v-9.684h-9.25z" fill="#2f9edc"/><path d="m61.9997 87.863h29.3059v-9.682h-29.3059zm8.983 33.197h11.4109v-30.95h-11.4109zm42.7263-39.324v-10.039c-10.113.259-15.6452 8.252-15.6452 19.624h10.7172c-.343-4.323 1.299-8.385 4.928-9.585z"/><path d="m132.037 86.047c.09-7.866-5.533-14.522-15.82-14.263v9.941c3.025.865 4.756 2.247 4.756 5.273 0 6.397-8.473 14.436-22.9083 24.896v9.165h33.8873v-9.597h-17.117c14.435-11.497 17.116-17.894 17.202-25.415z"/></g></svg>