<svg xmlns="http://www.w3.org/2000/svg" height="400" width="600" viewBox="0 0 600.01176 260.00454"><g fill="#0074b6" fill-rule="evenodd"><path d="M299.516 2.15c19.51 0 37.913 4.565 54.212 12.58 2.593 1.22 5.185 2.578 7.778 4.076l-11.36 10.105-17.164-17.63-28.897 25.79-17.165-18.75-53.838 48.505 34.577 38.016-13.59 11.85 33.96 38.12-13.46 11.846 48.53 54.08 28.9-26.553 24.943 28.54c-5.064 3.797-10.374 7.386-16.423 10.73-18.03 10.246-38.774 16.17-61.003 16.17-68.168 0-123.736-55.544-123.736-123.702 0-68.12 55.57-123.77 123.74-123.77z"/><path d="M277.04 118.046l29.392-26.412 26.55 29.374-29.515 26.518zm20.86 50.844l29.39-26.412 26.55 29.374-29.39 26.552zM255.917 67.797l29.39-26.412 26.55 29.374-29.39 26.55zM309.88 53.62l22.1-19.896 19.883 22.127-22.1 19.868zm39.275 90.945l22.103-19.862 19.882 22.092-22.106 19.862zm19.39 44.557l22.102-19.863 19.882 22.09-22.11 19.86zm8.895-102.2l14.82-13.206 13.213 14.705-14.694 13.317zm-18.78-43.697l14.698-13.207 13.335 14.705-14.82 13.31zm37.66 87.545l14.697-13.346 13.213 14.704-14.698 13.31zm-66.06-32.873l22.107-19.862 19.882 22.09-22.11 19.863zM55.867"/></g></svg>